# xmcd
#
# Track frame offsets:
#   150
#   17952
#   33384
#   54582
#   71472
#   93889
#   108785
#   126984
#   142659
#   160520
#   180329
#   204448
#   218808
#   240276
#   259669
#   279913
#   297697
#   317220
#   332775
#
# Disc length: 4641 seconds
#
# Revision: 0
# Processed by: cddbd v1.5.1PL0 Copyright (c) Steve Scherf et al.
# Submitted via: Media_Universe 3.0
#
DISCID=08121f13
DTITLE=SHE DAISY - She Daisy
DYEAR=2004
DGENRE=Country
TTITLE0=Without Your Love
TTITLE1=I'm Lit
TTITLE2=A Night To Remember
TTITLE3=Cause I Like It That Way
TTITLE4=Dancin' With Angels
TTITLE5=Get Over Yourself
TTITLE6=Lucky For You
TTITLE7=Passenger Seat
TTITLE8=Punishment
TTITLE9=Still Holding Out For You
TTITLE10=Keep Me
TTITLE11=Before Me And You
TTITLE12=Everybody Wsnts You
TTITLE13=Now
TTITLE14=All Over You
TTITLE15=Mine All Mine
TTITLE16=Repent
TTITLE17=Rush
TTITLE18=Turn Me On
EXTD=
EXTT0=
EXTT1=
EXTT2=
EXTT3=
EXTT4=
EXTT5=
EXTT6=
EXTT7=
EXTT8=
EXTT9=
EXTT10=
EXTT11=
EXTT12=
EXTT13=
EXTT14=
EXTT15=
EXTT16=
EXTT17=
EXTT18=
PLAYORDER=
